<svg width="76" height="96" viewBox="0 0 76 96" fill="none" xmlns="http://www.w3.org/2000/svg">
<g clip-path="url(#clip0_80_40)">
<mask id="mask0_80_40" style="mask-type:luminance" maskUnits="userSpaceOnUse" x="0" y="0" width="76" height="96">
<path d="M75.5 0H0.5V96H75.5V0Z" fill="white"/>
</mask>
<g mask="url(#mask0_80_40)">
<mask id="mask1_80_40" style="mask-type:luminance" maskUnits="userSpaceOnUse" x="0" y="2" width="76" height="92">
<path d="M54.7795 2.98976L0.5 17.543L20.7748 93.1624L75.0543 78.6092L54.7795 2.98976Z" fill="white"/>
</mask>
<g mask="url(#mask1_80_40)">
<path d="M57.6913 14.653C57.536 14.5372 57.3498 14.4703 57.1564 14.4607C56.963 14.4512 56.7711 14.4995 56.6052 14.5994L52.9801 16.789L51.0579 13.3697C51.0145 13.1932 50.9244 13.0317 50.797 12.9021C50.6696 12.7725 50.5096 12.6797 50.3339 12.6333C50.1582 12.587 49.9732 12.5888 49.7985 12.6387C49.6237 12.6886 49.4656 12.7847 49.3409 12.9168L45.984 14.9444L43.9097 11.2553C43.8147 11.0865 43.6715 10.9499 43.4984 10.863C43.3253 10.776 43.1302 10.7428 42.9381 10.7674C42.746 10.792 42.5656 10.8733 42.42 11.0011C42.2744 11.1288 42.1702 11.297 42.1208 11.4843L40.3547 18.186C39.5313 17.6986 38.7148 17.233 37.9196 16.7929L35.8517 9.08034C35.8024 8.89234 35.6979 8.72342 35.5517 8.59535C35.4055 8.46727 35.2243 8.38591 35.0314 8.36176C34.8386 8.3376 34.6429 8.37175 34.4696 8.4598C34.2964 8.54785 34.1534 8.68578 34.0592 8.8558L32.0011 12.5605L28.6343 10.5464C28.509 10.4147 28.3505 10.3191 28.1755 10.2699C28.0005 10.2207 27.8154 10.2195 27.6398 10.2666C27.4642 10.3137 27.3046 10.4073 27.1777 10.5375C27.0507 10.6676 26.9613 10.8296 26.9187 11.0064L25.0114 14.4356L21.3757 12.2565C21.2094 12.1573 21.0174 12.1099 20.824 12.1204C20.6307 12.1309 20.4449 12.1989 20.2905 12.3156C20.136 12.4323 20.0198 12.5924 19.9568 12.7754C19.8938 12.9585 19.8869 13.1562 19.9368 13.3432L21.9889 20.9969C21.5153 21.7834 21.034 22.5989 20.5604 23.4507L15.7103 18.5613C15.5738 18.4238 15.3994 18.3302 15.2095 18.2925C15.0195 18.2547 14.8226 18.2745 14.6439 18.3493C14.4653 18.4241 14.313 18.5506 14.2066 18.7124C14.1002 18.8743 14.0446 19.0642 14.0467 19.2579L14.0963 23.4899L10.1751 23.4167C10.001 23.3647 9.81604 23.3607 9.63978 23.4049C9.46352 23.4491 9.30243 23.54 9.17347 23.6681C9.0445 23.7961 8.95243 23.9565 8.90694 24.1325C8.86144 24.3084 8.86421 24.4934 8.91494 24.6679L8.96115 28.5902L4.72714 28.5087C4.53389 28.5053 4.344 28.5595 4.18168 28.6645C4.01936 28.7694 3.89197 28.9203 3.81574 29.0979C3.73951 29.2755 3.7179 29.4718 3.75366 29.6617C3.78942 29.8517 3.88093 30.0267 4.01653 30.1644L10.9522 37.1516C11.9265 38.1369 13.135 38.8586 14.4645 39.249C14.4841 39.6579 14.5061 40.0568 14.5343 40.4438C15.1904 49.3673 18.4129 57.5748 23.6049 63.5541C24.7297 64.8556 25.9672 66.0553 27.3028 67.1393C27.2512 67.4414 27.2479 67.7499 27.2931 68.0531C27.4205 69.1404 27.7823 70.1872 28.3536 71.1211C28.9249 72.055 29.692 72.8538 30.6021 73.4624C32.1571 74.4213 33.948 74.9291 35.7749 74.9292L35.2555 79.7735C34.8795 80.4374 34.7795 81.2224 34.977 81.9594C34.9863 81.9942 34.9951 82.027 35.0093 82.0605L34.6743 85.179C34.6484 85.4191 34.7128 85.6602 34.8549 85.8554C34.997 86.0506 35.2067 86.186 35.4431 86.2351C39.5698 87.0995 43.842 86.981 47.9144 85.8891C51.9868 84.7972 55.7453 82.7626 58.886 79.9497C59.0661 79.7889 59.18 79.5668 59.2053 79.3267C59.2307 79.0865 59.1658 78.8455 59.0233 78.6506L57.1732 76.118C57.1641 76.0842 57.1599 76.0491 57.1506 76.0143C56.9531 75.2773 56.4737 74.6475 55.8159 74.2609L52.9447 70.3298C54.5278 69.4148 55.8252 68.0775 56.6918 66.4673C57.1748 65.4849 57.4389 64.4093 57.4658 63.3148C57.4927 62.2203 57.2818 61.133 56.8476 60.128C56.7351 59.8429 56.5779 59.5774 56.3821 59.3416C56.9965 57.7349 57.4678 56.0771 57.7904 54.3874C59.2971 46.61 57.982 37.8932 54.0867 29.8412C53.9178 29.4931 53.7365 29.1337 53.5496 28.7727C54.5055 27.7696 55.1909 26.5401 55.5416 25.1996L58.0478 15.6777C58.097 15.4904 58.0893 15.2927 58.0255 15.1099C57.9617 14.927 57.8448 14.7674 57.6898 14.6513M49.7159 14.9606L51.3051 17.7983L48.5195 19.477L46.9303 16.6394L49.7159 14.9606ZM41.3343 22.2722C41.3685 22.0135 43.3831 14.2999 43.3831 14.2999L50.0983 26.2501C49.8399 26.2387 49.5875 26.3298 49.3959 26.5036L46.3919 29.2681C46.3089 29.252 46.2276 29.2345 46.1448 29.2153L43.7149 26.4011C43.642 26.255 43.5352 26.1284 43.4035 26.0318C43.2718 25.9352 43.119 25.8714 42.9577 25.8458C42.7964 25.8202 42.6313 25.8335 42.4761 25.8845C42.321 25.9355 42.1802 26.0229 42.0656 26.1392C41.4084 24.9638 41.1517 23.6065 41.3343 22.2722ZM39.2045 42.1346C38.1663 41.5629 37.3108 40.7094 36.7367 39.6725C36.1626 38.6356 35.8934 37.4575 35.96 36.2741L36.3868 28.837L46.8188 40.9204C45.8654 41.9406 44.5991 42.6139 43.2202 42.8335C41.8412 43.0532 40.4284 42.8068 39.2052 42.1334M41.0768 44.7731C40.8268 45.3351 40.5923 45.897 40.3645 46.4572L39.8403 44.502C40.1367 44.592 40.4381 44.6651 40.7428 44.7208L40.7496 44.719C40.8578 44.739 40.9662 44.7569 41.0746 44.7726M43.7259 34.3628L48.9468 29.5595L48.5203 36.9903C48.5032 37.2534 48.4696 37.5152 48.4199 37.7741C48.3255 38.2872 48.1671 38.7864 47.9485 39.26L43.7259 34.3628ZM42.7221 28.2246L44.8486 30.6873L42.4539 32.8898L40.3301 30.4295L42.7221 28.2246ZM38.5716 19.4024C38.9195 19.6032 39.761 20.1003 39.8316 20.1435L39.6065 20.9991C39.3277 22.0433 39.2589 23.1325 39.4038 24.2036C39.5488 25.2747 39.9048 26.3063 40.4511 27.2389C40.5041 27.3283 40.5627 27.4234 40.62 27.5136L39.0526 28.9548L36.6272 26.1457C37.4275 25.2342 38.0165 24.1572 38.3522 22.9916C38.6878 21.826 38.7618 20.6006 38.5687 19.4032M34.5903 11.9026C34.5903 11.9026 36.6367 19.6084 36.6729 19.8669C36.8448 21.2162 36.5797 22.5851 35.9166 23.7727C35.2535 24.9603 34.2273 25.9042 32.9885 26.4658C31.991 26.8783 30.907 27.038 29.8329 26.9308C28.7588 26.8235 27.7278 26.4526 26.8316 25.8511L34.5903 11.9026ZM34.1224 34.4257L32.4208 31.8367L31.6239 28.8643C31.7686 28.8427 31.914 28.8176 32.0602 28.7887L32.0873 28.7815C32.2473 28.7489 32.4083 28.712 32.5686 28.669L32.5889 28.6635C32.7493 28.6205 32.9059 28.5713 33.062 28.5201L33.088 28.5131C33.2286 28.4658 33.3671 28.4148 33.5037 28.3603L34.3006 31.3327L34.1224 34.4257ZM37.5288 43.3729L39.2004 49.6074C39.0061 50.1855 38.8245 50.7609 38.6557 51.3336C38.2224 50.9224 37.7773 50.515 37.3206 50.1115L35.649 43.8769C35.8948 43.3481 36.0842 42.7947 36.2139 42.2261C36.6104 42.6538 37.0512 43.0382 37.5288 43.3729ZM26.3734 46.4021L29.3563 30.722L33.3517 36.7954L33.8348 37.6319C34.3733 38.7306 34.579 39.9627 34.4268 41.1768C34.2745 42.3909 33.7709 43.5341 32.9778 44.4658C32.1847 45.3976 31.1367 46.0773 29.9625 46.4215C28.7883 46.7658 27.5392 46.7595 26.3685 46.4034M34.2027 46.0135L34.7272 47.9697C34.2498 47.5986 33.7649 47.2306 33.2679 46.8678C33.3552 46.7995 33.4402 46.7302 33.5228 46.6597L33.5315 46.6574C33.7672 46.457 33.9913 46.2434 34.2028 46.0176M24.5535 45.5388C24.1273 45.2384 23.7406 44.8857 23.4023 44.489C23.2296 44.2897 23.0696 44.0798 22.9231 43.8605L18.8403 37.6346L25.7677 39.1808L24.5535 45.5388ZM28.268 12.5902L31.06 14.2604L29.478 17.1034L26.7329 15.4651L26.6821 15.4342L28.268 12.5902ZM22.435 15.1647L28.5264 18.8061L25.3822 24.4577C25.0722 24.039 24.8161 23.5831 24.6197 23.1007C24.5197 22.8569 24.4351 22.607 24.3663 22.3527L22.435 15.1647ZM22.7278 23.5944C23.1548 24.7405 23.8318 25.7771 24.7095 26.6288C25.5873 27.4804 26.6439 28.1258 27.8024 28.518L27.1076 32.1637L25.0245 31.6971C25.0295 31.5922 25.0345 31.4873 25.0333 31.3748C25.04 30.2939 24.8321 29.2225 24.4218 28.2226C24.0115 27.2226 23.4069 26.314 22.6431 25.5493L21.986 24.8867C22.0169 24.8319 22.5051 23.9648 22.72 23.5924M26.7385 34.0736L26.1293 37.2698L22.9537 36.5597L23.563 33.3636L26.7385 34.0736ZM16.0214 21.637C16.0214 21.637 21.6234 27.3075 21.7837 27.5151C22.6092 28.579 23.066 29.8828 23.085 31.2293L23.0694 31.2252C22.9309 31.1838 22.7849 31.1743 22.6422 31.1975C22.4996 31.2207 22.3641 31.2759 22.2458 31.359C21.9505 31.5976 21.8722 31.7999 21.7889 32.2809L21.0928 35.9331C21.0317 35.991 20.9691 36.0471 20.9052 36.1025L16.9212 35.2116C16.796 35.1842 16.6667 35.1818 16.5405 35.2044C16.4144 35.227 16.294 35.2743 16.1862 35.3435L16.0214 21.637ZM10.8692 25.3761L14.1211 25.4361L14.1646 28.6881L10.9128 28.6281L10.8692 25.3761ZM12.924 36.3072C12.7182 36.1459 7.09088 30.5008 7.09088 30.5008L14.1844 30.6388L14.2625 37.109C13.7845 36.8989 13.3348 36.6295 12.924 36.3072ZM28.0188 65.1871C22.9127 60.5965 19.3227 54.5621 17.7251 47.8842C17.4888 46.977 17.2811 46.0532 17.1021 45.1127C16.7359 43.1597 16.4711 40.2372 16.4683 40.2038C16.5242 40.223 18.0689 40.7977 18.7756 41.0855L21.302 44.9237C22.3634 46.5431 23.9627 47.7355 25.8177 48.2905C27.6727 48.8456 29.6641 48.7275 31.4405 47.9573C32.9062 48.9932 34.2904 50.0738 35.593 51.199C36.4446 51.9371 37.2708 52.7013 38.0715 53.4917C38.0579 53.5451 37.4733 56.2076 37.2828 57.5012C37.0412 59.1376 36.9172 60.7893 36.9118 62.4434C35.3155 61.7694 33.5475 61.6152 31.8587 62.0028C31.0261 62.2255 30.2515 62.6255 29.588 63.1755C28.9244 63.7255 28.3876 64.4125 28.0143 65.1893M31.6701 71.8383C30.5554 71.0955 29.7526 69.969 29.4142 68.673C29.2911 68.3049 29.2427 67.9159 29.2719 67.5288C29.3011 67.1417 29.4074 66.7643 29.5844 66.4188C29.8159 65.8074 30.1878 65.259 30.6703 64.8178C31.1527 64.3765 31.7321 64.0549 32.3617 63.8787C33.9366 63.5687 35.5703 63.8109 36.9876 64.5644C37.3231 64.714 37.6682 64.8834 38.0227 65.0728C38.36 65.2536 38.7057 65.4498 39.0609 65.6662C39.4497 65.9037 39.8494 66.1627 40.2601 66.4433L40.3419 66.5011C39.7962 66.8782 39.3792 67.4135 39.1472 68.035C38.8946 67.8652 38.6406 67.698 38.3851 67.5331C38.0122 67.3007 37.6413 67.0761 37.2649 66.8695C35.675 65.9984 34.0662 65.4357 32.8652 65.7566C32.5585 65.8383 32.274 65.9875 32.0324 66.1934C31.7909 66.3993 31.5985 66.6566 31.4693 66.9465C31.3401 67.2363 31.2774 67.5515 31.2859 67.8687C31.2943 68.186 31.3736 68.4973 31.5179 68.78C31.7791 69.3628 32.2023 69.8582 32.7372 70.2071C33.7858 70.8076 34.9829 71.0991 36.1901 71.0478C37.2082 71.0429 38.2235 70.9416 39.2225 70.7452C39.3632 71.2698 39.7059 72.525 39.743 72.6248C39.5651 72.6587 39.3842 72.691 39.2005 72.7216C38.1383 72.9072 37.0611 72.9932 35.9829 72.9785C34.4667 73.0049 32.9731 72.6083 31.6697 71.8332M41.883 67.8927L44.1376 67.2882C44.4855 67.215 44.8481 67.2728 45.156 67.4505C45.4639 67.6282 45.6954 67.9133 45.8061 68.2511C45.8061 68.2511 46.4811 70.6722 46.473 70.8121C46.486 71.1227 46.3909 71.4282 46.2039 71.6765C46.017 71.9249 45.7497 72.1008 45.4476 72.1742L43.192 72.779C42.8293 72.8614 42.4488 72.7979 42.1325 72.6022C41.8162 72.4065 41.5895 72.0943 41.5013 71.733L40.9201 69.5653C40.8415 69.2171 40.897 68.852 41.0754 68.5428C41.2539 68.2336 41.5422 68.003 41.883 67.8968M36.9454 68.937C36.8479 68.9744 36.7572 69.0274 36.6768 69.0939C35.6907 69.2043 34.6938 69.0276 33.8057 68.5849C33.5295 68.4069 33.3237 68.1386 33.2232 67.8258C33.257 67.759 33.3011 67.6979 33.3538 67.6447L33.3702 67.6403C33.9189 67.4932 35.1706 67.8711 36.9454 68.937ZM39.4404 74.6629C39.1278 76.0325 38.4081 77.2754 37.376 78.2285L37.7359 74.8745C38.2863 74.8305 38.8514 74.7598 39.4392 74.6622M37.1333 80.4939C37.2484 80.3834 37.3892 80.3033 37.543 80.2608C39.6064 79.7076 40.8263 76.9856 41.5225 74.4961C42.1413 74.7659 42.8282 74.8387 43.4899 74.7048C42.7465 77.4855 41.1747 81.3011 38.0477 82.1394C37.8542 82.1906 37.6496 82.1807 37.4619 82.1111C37.2742 82.0415 37.1126 81.9156 36.9992 81.7507C36.8635 81.5609 36.8022 81.3279 36.8271 81.096C36.852 80.864 36.9612 80.6493 37.134 80.4927M56.9232 79.0708C54.1477 81.3862 50.9018 83.0703 47.4106 84.0064C43.9194 84.9424 40.2664 85.108 36.7049 84.4917L36.7608 83.9279C37.3312 84.1461 37.956 84.1786 38.5459 84.0208C42.2409 83.0302 44.1853 79.299 45.2037 75.7943C47.8377 78.3156 51.3889 80.5774 55.0839 79.5868C55.6736 79.4282 56.1983 79.0875 56.5831 78.6132L56.9232 79.0708ZM55.2709 76.5111C55.3342 76.7602 55.2977 77.0242 55.1692 77.2469C55.0407 77.4695 54.8303 77.6332 54.5829 77.703C51.456 78.5414 48.1852 76.0241 46.1514 73.9881C46.7914 73.7731 47.3496 73.3663 47.7505 72.8231C49.5985 74.6295 52.0168 76.3771 54.0802 75.8239C54.3293 75.7613 54.5929 75.7982 54.8154 75.9265C55.0378 76.0549 55.2016 76.2648 55.2721 76.5118M49.6375 71.9248C50.1941 71.7145 50.7191 71.4908 51.2185 71.2565L53.2077 73.9796C51.838 73.67 50.5929 72.9539 49.6375 71.9248ZM55.3173 61.727C55.6729 63.0187 55.5414 64.3961 54.9478 65.5972C54.2071 66.9206 53.1124 68.0116 51.7863 68.7476C50.8602 69.2999 49.8844 69.7643 48.8718 70.1348C48.6974 70.2002 48.5247 70.2627 48.3536 70.3224C48.2254 69.6845 48.062 69.0543 47.864 68.4345C48.8271 68.1044 49.7569 67.6842 50.6411 67.1795C51.7121 66.6197 52.6027 65.7681 53.21 64.7232C53.4987 64.1535 53.6173 63.5128 53.5518 62.8775C53.5569 62.5625 53.481 62.2513 53.3314 61.974C53.1818 61.6966 52.9635 61.4623 52.6974 61.2936C52.4356 61.1087 52.1378 60.9811 51.8234 60.9191C51.509 60.8571 51.1851 60.8621 50.8727 60.9337C49.673 61.2554 48.5605 62.5477 47.6198 64.0983C47.237 64.729 46.8918 65.3839 46.5731 66.0491C46.0628 65.6258 45.4349 65.3692 44.7742 65.3138L44.817 65.2226C45.3484 64.0799 45.9818 62.9875 46.7097 61.9588C47.5597 60.597 48.853 59.5697 50.3718 59.0499C51.0059 58.8868 51.6695 58.8752 52.309 59.0161C52.9484 59.1569 53.5457 59.4462 54.0527 59.8606C54.7028 60.2916 55.1581 60.9601 55.3213 61.7228M48.9375 65.7186C49.9409 63.9078 50.8357 62.9545 51.3844 62.8073L51.4008 62.8029C51.4731 62.8226 51.5418 62.8535 51.6045 62.8943C51.6738 63.2155 51.6298 63.5507 51.4799 63.8431C50.9318 64.6726 50.1554 65.3259 49.2445 65.7243C49.1416 65.7069 49.0365 65.7064 48.9334 65.7228M55.8798 54.0237C55.6196 55.3801 55.258 56.7152 54.798 58.0175C54.0857 57.5305 53.2765 57.2034 52.4259 57.0586C51.5753 56.9138 50.7034 56.9548 49.8701 57.1788C48.214 57.6882 46.7603 58.7061 45.7153 60.0882C44.3925 61.7664 43.3151 63.6241 42.5154 65.6057L42.4923 65.6584L42.4459 65.6243C41.6689 65.0436 40.8624 64.4957 40.032 63.9935C39.6427 63.7583 39.2623 63.5444 38.8883 63.3465C38.8551 62.2424 38.8823 61.1373 38.9699 60.0361C39.2228 57.0965 39.7954 54.1932 40.6773 51.3776C41.3718 49.1305 42.216 46.9324 43.2041 44.7981C43.5999 44.7528 43.9918 44.6785 44.3767 44.5759C46.0473 44.127 47.5342 43.1639 48.627 41.823C49.7198 40.4821 50.363 38.8313 50.4655 37.1045L50.729 32.5183C51.187 31.9327 52.2375 30.6642 52.2857 30.6006C53.3723 32.899 54.2795 35.2781 54.9992 37.7165C56.5517 43.0095 56.8514 48.5911 55.8747 54.0199M53.4091 25.4525C53.2151 25.9373 52.9609 26.3957 52.6525 26.8171L49.4833 21.1756L55.5563 17.5075C55.5563 17.5075 53.5069 25.2109 53.4103 25.4532" fill="#4C685D"/>
<path d="M43.4892 74.7058C42.7448 77.4823 41.1743 81.3013 38.0477 82.1396C37.8541 82.191 37.6493 82.1813 37.4614 82.1117C37.2735 82.0422 37.1118 81.9162 36.9983 81.7511C36.8626 81.5614 36.8014 81.3284 36.8262 81.0965C36.8511 80.8646 36.9603 80.6499 37.1331 80.4933C37.2481 80.3827 37.3889 80.3026 37.5428 80.2602C39.6062 79.7081 40.8257 76.9854 41.5221 74.4971C42.1409 74.7667 42.8276 74.8396 43.4892 74.7058Z" fill="#76C19F"/>
<path d="M55.271 76.5156C55.299 76.6233 55.308 76.7351 55.2975 76.846C55.2819 77.0455 55.2049 77.2354 55.0772 77.3895C54.9495 77.5437 54.7773 77.6546 54.5842 77.7071C51.4564 78.5447 48.1859 76.0236 46.1524 73.9919C46.7922 73.7767 47.3503 73.3701 47.7513 72.8271C49.5991 74.6332 52.0171 76.3806 54.0802 75.8275C54.3293 75.765 54.5929 75.8018 54.8153 75.9302C55.0378 76.0585 55.2006 76.2686 55.271 76.5156Z" fill="#76C19F"/>
<path d="M55.3221 61.7257C55.6762 63.016 55.5442 64.3915 54.9513 65.591C54.2117 66.9159 53.1172 68.0082 51.7909 68.7453C50.8645 69.2977 49.8884 69.7622 48.8754 70.1327C48.701 70.1981 48.5286 70.2606 48.3582 70.3201C48.2299 69.6822 48.0665 69.052 47.8686 68.4322C48.8316 68.102 49.7614 67.6818 50.6456 67.1772C51.7149 66.6172 52.6038 65.7661 53.2097 64.7222C53.4985 64.1525 53.6171 63.5118 53.5515 62.8765C53.5577 62.5618 53.483 62.2507 53.3346 61.9731C53.1861 61.6954 52.969 61.4605 52.7039 61.2907C52.4421 61.1059 52.1443 60.9783 51.8299 60.9163C51.5155 60.8543 51.1916 60.8593 50.8792 60.9309C49.6795 61.2526 48.567 62.5449 47.6263 64.0955C47.2435 64.7262 46.8983 65.381 46.5794 66.0453C46.0666 65.6235 45.4368 65.3692 44.7749 65.3166L44.8178 65.2254C45.3491 64.0825 45.9825 62.9898 46.7102 61.9607C47.5604 60.5992 48.8538 59.5723 50.3726 59.0528C51.0067 58.8897 51.6703 58.8781 52.3097 59.0189C52.9492 59.1597 53.5465 59.449 54.0535 59.8634C54.7035 60.2945 55.1589 60.9629 55.3221 61.7257Z" fill="#76C19F"/>
<path d="M46.4734 70.8157C46.4864 71.1268 46.3909 71.4328 46.2034 71.6813C46.0159 71.9299 45.7479 72.1056 45.4452 72.1785L43.1928 72.7824C42.8302 72.8645 42.4499 72.8008 42.1339 72.6051C41.8178 72.4095 41.5913 72.0974 41.5032 71.7363L40.921 69.565C40.8423 69.2169 40.8975 68.852 41.0758 68.5429C41.254 68.2337 41.5422 68.0031 41.8829 67.897L44.1353 67.293C44.4834 67.2193 44.8464 67.2768 45.1547 67.4544C45.4629 67.632 45.6947 67.9173 45.8055 68.2553C45.8055 68.2553 46.4814 70.6759 46.4734 70.8157Z" fill="#76C19F"/>
<path d="M40.3439 66.5048C39.7978 66.8815 39.3804 67.4166 39.148 68.038C38.8954 67.8686 38.6432 67.7001 38.3859 67.5361C38.013 67.3037 37.6421 67.0791 37.2657 66.8725C35.677 66.002 34.067 65.4387 32.8672 65.7603C32.5599 65.8414 32.2747 65.9902 32.0325 66.1959C31.7902 66.4016 31.5972 66.659 31.4675 66.9492C31.3378 67.2393 31.2748 67.5548 31.283 67.8725C31.2912 68.1902 31.3706 68.502 31.5151 68.785C31.7774 69.3679 32.2021 69.863 32.7383 70.2111C33.7868 70.812 34.984 71.1038 36.1914 71.0527C37.2095 71.0479 38.2249 70.9466 39.2238 70.7501C39.3645 71.2747 39.7072 72.5299 39.7444 72.6297C39.5664 72.6636 39.3855 72.6959 39.2018 72.7265C38.1395 72.9117 37.0622 72.9974 35.984 72.9825C34.467 73.0079 32.973 72.61 31.6697 71.8333C30.556 71.0915 29.7533 69.9666 29.414 68.6722C29.291 68.3039 29.2427 67.9148 29.2721 67.5277C29.3015 67.1405 29.4079 66.7632 29.5851 66.4177C29.8171 65.807 30.1894 65.2594 30.6718 64.8189C31.1542 64.3785 31.7333 64.0574 32.3625 63.8817C33.9374 63.5716 35.5711 63.8138 36.9884 64.5674C37.3239 64.7169 37.6689 64.8864 38.0234 65.0758C38.3608 65.2566 38.7064 65.4528 39.0616 65.6692C39.4504 65.9067 39.8502 66.1657 40.2609 66.4463L40.3427 66.5041" fill="#76C19F"/>
</g>
</g>
</g>
<defs>
<clipPath id="clip0_80_40">
<rect width="75" height="96" fill="white" transform="translate(0.5)"/>
</clipPath>
</defs>
</svg>
