<svg width="120" height="96" viewBox="0 0 120 96" fill="none" xmlns="http://www.w3.org/2000/svg">
<g clip-path="url(#clip0_80_198)">
<mask id="mask0_80_198" style="mask-type:luminance" maskUnits="userSpaceOnUse" x="0" y="0" width="120" height="96">
<path d="M120 0H0V96H120V0Z" fill="white"/>
</mask>
<g mask="url(#mask0_80_198)">
<mask id="mask1_80_198" style="mask-type:luminance" maskUnits="userSpaceOnUse" x="3" y="21" width="114" height="54">
<path d="M116.347 21H3V74.454H116.347V21Z" fill="white"/>
</mask>
<g mask="url(#mask1_80_198)">
<path d="M31.895 20.9969C31.4309 20.9969 30.9857 21.1813 30.6576 21.5095C30.3294 21.8377 30.145 22.2828 30.145 22.7469C30.145 23.2111 30.3294 23.6562 30.6576 23.9844C30.9857 24.3126 31.4309 24.4969 31.895 24.4969H80.275V64.4699H58.204C57.9263 62.4102 56.9108 60.5211 55.346 59.1531C53.7813 57.7852 51.7734 57.0313 49.695 57.0313C47.6166 57.0313 45.6087 57.7852 44.0439 59.1531C42.4792 60.5211 41.4637 62.4102 41.186 64.4699H33.657V56.8629C33.6573 56.3976 33.4738 55.951 33.1464 55.6202C32.819 55.2895 32.3743 55.1014 31.909 55.0969H31.895C31.4299 55.0999 30.9849 55.2873 30.6579 55.618C30.3309 55.9488 30.1486 56.3958 30.151 56.8609V66.2269C30.1512 66.6901 30.3349 67.1342 30.6617 67.4623C30.9885 67.7905 31.4319 67.9758 31.895 67.9779H41.385C41.8495 69.8292 42.9191 71.4722 44.424 72.6462C45.9289 73.8201 47.7829 74.4577 49.6915 74.4577C51.6001 74.4577 53.4541 73.8201 54.959 72.6462C56.4639 71.4722 57.5335 69.8292 57.998 67.9779H90.011C90.475 69.8287 91.5441 71.4713 93.0484 72.645C94.5527 73.8187 96.406 74.4562 98.314 74.4562C100.222 74.4562 102.075 73.8187 103.58 72.645C105.084 71.4713 106.153 69.8287 106.617 67.9779H114.602C115.065 67.9761 115.509 67.7908 115.836 67.4627C116.163 67.1345 116.347 66.6902 116.347 66.2269V49.9319C116.349 49.7068 116.306 49.4834 116.221 49.2749L109.657 32.9969C109.527 32.6738 109.304 32.3966 109.015 32.2007C108.727 32.0049 108.387 31.8991 108.039 31.8969H83.791V22.7479C83.7889 22.283 83.6028 21.8378 83.2733 21.5097C82.9439 21.1815 82.4979 20.9972 82.033 20.9969H31.895ZM83.795 35.3969H106.843L111.996 48.1829H83.791L83.795 35.3969ZM83.795 51.6919H112.839V64.4699H106.817C106.536 62.415 105.52 60.5313 103.958 59.1676C102.395 57.8039 100.391 57.0525 98.317 57.0525C96.2429 57.0525 94.2391 57.8039 92.6763 59.1676C91.1136 60.5313 90.0978 62.415 89.817 64.4699H83.791L83.795 51.6919ZM49.563 60.5439H49.696C51.0242 60.5615 52.2915 61.1037 53.2213 62.0522C54.1512 63.0007 54.6682 64.2785 54.6594 65.6068C54.6506 66.935 54.1168 68.2059 53.1745 69.142C52.2321 70.0781 50.9578 70.6035 49.6295 70.6035C48.3012 70.6035 47.0269 70.0781 46.0845 69.142C45.1422 68.2059 44.6084 66.935 44.5996 65.6068C44.5908 64.2785 45.1078 63.0007 46.0376 62.0522C46.9675 61.1037 48.2348 60.5615 49.563 60.5439ZM98.189 60.5439H98.322C99.6502 60.5615 100.917 61.1037 101.847 62.0522C102.777 63.0007 103.294 64.2785 103.285 65.6068C103.277 66.935 102.743 68.2059 101.8 69.142C100.858 70.0781 99.5838 70.6035 98.2555 70.6035C96.9272 70.6035 95.6529 70.0781 94.7105 69.142C93.7682 68.2059 93.2344 66.935 93.2256 65.6068C93.2168 64.2785 93.7338 63.0007 94.6637 62.0522C95.5935 61.1037 96.8608 60.5615 98.189 60.5439Z" fill="#4C685D"/>
<path d="M12.676 30.287C12.2108 30.287 11.7647 30.4718 11.4357 30.8007C11.1068 31.1297 10.922 31.5758 10.922 32.041C10.922 32.5062 11.1068 32.9523 11.4357 33.2813C11.7647 33.6102 12.2108 33.795 12.676 33.795H39.151C39.3813 33.7958 39.6096 33.7513 39.8227 33.664C40.0359 33.5766 40.2297 33.4481 40.3932 33.2858C40.5566 33.1236 40.6866 32.9307 40.7755 32.7182C40.8644 32.5057 40.9106 32.2778 40.9115 32.0475C40.9124 31.8171 40.8678 31.5889 40.7805 31.3758C40.6931 31.1626 40.5646 30.9688 40.4024 30.8053C40.2401 30.6418 40.0472 30.5119 39.8347 30.423C39.6223 30.3341 39.3943 30.2878 39.164 30.287H12.676Z" fill="#76C19F"/>
<path d="M4.764 41.4829C4.52921 41.475 4.29522 41.5144 4.07597 41.5988C3.85671 41.6831 3.65668 41.8108 3.48778 41.974C3.31888 42.1373 3.18457 42.3329 3.09283 42.5492C3.0011 42.7655 2.95383 42.998 2.95383 43.2329C2.95383 43.4679 3.0011 43.7004 3.09283 43.9167C3.18457 44.1329 3.31888 44.3285 3.48778 44.4918C3.65668 44.6551 3.85671 44.7827 4.07597 44.8671C4.29522 44.9515 4.52921 44.9909 4.764 44.9829H39.151C39.3858 44.9913 39.6198 44.9524 39.8392 44.8685C40.0586 44.7845 40.2589 44.6573 40.4281 44.4943C40.5973 44.3314 40.732 44.1361 40.8242 43.92C40.9164 43.7039 40.9641 43.4715 40.9646 43.2366C40.965 43.0016 40.9182 42.769 40.8269 42.5526C40.7356 42.3361 40.6017 42.1403 40.4332 41.9766C40.2646 41.813 40.0648 41.685 39.8458 41.6002C39.6267 41.5153 39.3928 41.4755 39.158 41.4829H4.764Z" fill="#76C19F"/>
</g>
</g>
</g>
<defs>
<clipPath id="clip0_80_198">
<rect width="120" height="96" fill="white"/>
</clipPath>
</defs>
</svg>
