<svg width="76" height="96" viewBox="0 0 76 96" fill="none" xmlns="http://www.w3.org/2000/svg">
<g clip-path="url(#clip0_80_97)">
<g clip-path="url(#clip1_80_97)">
<mask id="mask0_80_97" style="mask-type:luminance" maskUnits="userSpaceOnUse" x="1" y="1" width="75" height="96">
<path d="M76 1H1V97H76V1Z" fill="white"/>
</mask>
<g mask="url(#mask0_80_97)">
<mask id="mask1_80_97" style="mask-type:luminance" maskUnits="userSpaceOnUse" x="7" y="16" width="64" height="66">
<path d="M70.02 16H7V81.534H70.02V16Z" fill="white"/>
</mask>
<g mask="url(#mask1_80_97)">
<path d="M65.506 32.4759H54.164C55.2385 32.1423 56.2141 31.5483 57.0038 30.7469C57.7936 29.9454 58.3731 28.9613 58.691 27.8819C59.2261 25.8623 58.94 23.7129 57.8951 21.9035C56.8503 20.0942 55.1317 18.772 53.115 18.2259C49.878 17.3569 46.756 19.0619 43.559 23.4349C42.897 24.3349 42.228 25.3679 41.493 26.5909C41.147 26.1261 40.6971 25.7485 40.1793 25.4884C39.6614 25.2283 39.09 25.0929 38.5105 25.0929C37.931 25.0929 37.3595 25.2283 36.8417 25.4884C36.3239 25.7485 35.874 26.1261 35.528 26.5909C34.792 25.3669 34.128 24.3439 33.462 23.4349C30.264 19.0619 27.142 17.3569 23.906 18.2259C21.8889 18.7716 20.1698 20.0936 19.1246 21.903C18.0794 23.7124 17.7929 25.862 18.328 27.8819C18.6447 28.9619 19.2239 29.9466 20.0138 30.7482C20.8037 31.5498 21.7798 32.1434 22.855 32.4759H11.514C10.8489 32.4762 10.2111 32.7405 9.74085 33.2108C9.27057 33.6811 9.00625 34.3189 9.00598 34.9839L9.00598 40.9489C9.0067 41.5897 9.25342 42.2057 9.69519 42.6698C10.137 43.1339 10.7401 43.4106 11.38 43.4429V76.3909C11.3813 77.2222 11.7121 78.0191 12.3 78.607C12.8878 79.1948 13.6847 79.5256 14.516 79.5269H62.506C63.3373 79.5256 64.1342 79.1948 64.722 78.607C65.3098 78.0191 65.6407 77.2222 65.642 76.3909V43.4429C66.2813 43.409 66.8834 43.1317 67.3249 42.668C67.7663 42.2042 68.0136 41.5892 68.016 40.9489V34.9839C68.0159 34.6544 67.9508 34.3282 67.8246 34.0239C67.6984 33.7195 67.5135 33.443 67.2804 33.2101C67.0473 32.9772 66.7707 32.7925 66.4662 32.6665C66.1618 32.5406 65.8355 32.4758 65.506 32.4759ZM44.575 24.1759C47.43 20.2709 50.112 18.7189 52.787 19.4409C54.483 19.9016 55.9279 21.0146 56.8062 22.5368C57.6845 24.0591 57.925 25.867 57.475 27.5659C56.753 30.2659 54.018 31.8259 49.123 32.3269C48.407 32.4009 47.659 32.4539 46.823 32.4869H42.255V32.1129C50.915 26.5829 54.055 27.4789 54.085 27.4849L54.072 27.4779L54.512 26.3059C54.164 26.1789 50.941 25.2289 42.254 30.6259V28.8319C42.253 28.541 42.2171 28.2513 42.147 27.9689C42.8844 26.6605 43.6947 25.3945 44.574 24.1769M36.028 28.8309C36.028 28.1729 36.2894 27.5419 36.7547 27.0766C37.2199 26.6113 37.851 26.3499 38.509 26.3499C39.167 26.3499 39.798 26.6113 40.2633 27.0766C40.7286 27.5419 40.99 28.1729 40.99 28.8309V32.4759H36.029L36.028 28.8309ZM19.545 27.5549C19.095 25.856 19.3354 24.0481 20.2137 22.5258C21.0921 21.0036 22.537 19.8906 24.233 19.4299C26.906 18.7139 29.596 20.2659 32.444 24.1639C33.3183 25.384 34.1306 26.6473 34.878 27.9489C34.8087 28.2314 34.7727 28.5211 34.771 28.8119V30.6059C26.091 25.2059 22.871 26.1519 22.52 26.2859L22.961 27.4629L22.948 27.4699C22.981 27.4629 26.111 26.5699 34.778 32.0979V32.4719H30.206C29.363 32.4449 28.614 32.3919 27.892 32.3179C22.992 31.8179 20.262 30.2579 19.54 27.5569M32.306 78.2699H14.516C14.017 78.2699 13.5383 78.0722 13.1848 77.72C12.8314 77.3678 12.6318 76.8899 12.63 76.3909V43.4569H32.306V78.2699ZM32.313 42.1989H11.514C11.3498 42.1991 11.1872 42.1668 11.0355 42.1041C10.8838 42.0413 10.7459 41.9492 10.6298 41.8331C10.5137 41.717 10.4216 41.5792 10.3589 41.4274C10.2961 41.2757 10.2638 41.1131 10.264 40.9489V34.9839C10.2638 34.8188 10.2963 34.6553 10.3594 34.5027C10.4225 34.3502 10.5151 34.2116 10.6319 34.0948C10.7486 33.9781 10.8872 33.8855 11.0398 33.8223C11.1924 33.7592 11.3559 33.7268 11.521 33.7269H32.321L32.313 42.1989ZM43.452 78.2699H33.568V33.7269H43.452V78.2699ZM64.39 76.3839C64.3895 76.8836 64.1909 77.3627 63.8377 77.7162C63.4846 78.0698 63.0057 78.2689 62.506 78.2699H44.706V43.4569H64.386L64.39 76.3839ZM66.756 40.9489C66.7561 41.114 66.7237 41.2776 66.6606 41.4301C66.5974 41.5827 66.5049 41.7213 66.3881 41.8381C66.2714 41.9548 66.1327 42.0474 65.9802 42.1105C65.8276 42.1736 65.6641 42.2061 65.499 42.2059H44.706V33.7269H65.506C65.6711 33.7268 65.8346 33.7592 65.9872 33.8223C66.1397 33.8855 66.2784 33.9781 66.3951 34.0948C66.5119 34.2116 66.6044 34.3502 66.6676 34.5027C66.7307 34.6553 66.7631 34.8188 66.763 34.9839L66.756 40.9489Z" fill="#4C685D"/>
<path d="M25.531 17.256C28.454 17.256 31.246 19.132 34.067 22.992C34.579 23.692 35.104 24.479 35.66 25.369C36.4617 24.7059 37.4696 24.3432 38.51 24.3432C39.5504 24.3432 40.5582 24.7059 41.36 25.369C41.931 24.451 42.447 23.682 42.954 22.991C45.774 19.133 48.566 17.256 51.489 17.256C52.103 17.2596 52.7138 17.3436 53.306 17.506C55.5145 18.1028 57.397 19.5497 58.5419 21.5303C59.6868 23.511 60.0011 25.8643 59.416 28.076C59.0326 29.5218 58.1883 30.8032 57.011 31.726H65.506C66.3698 31.7268 67.198 32.0703 67.8089 32.6811C68.4197 33.2919 68.7632 34.1201 68.764 34.984V40.949C68.7623 41.6573 68.5296 42.3456 68.1011 42.9096C67.6726 43.4736 67.0719 43.8824 66.39 44.074V76.391C66.3887 77.4209 65.9791 78.4082 65.251 79.1366C64.523 79.8651 63.5359 80.2751 62.506 80.277H14.516C13.4858 80.2757 12.4981 79.8658 11.7696 79.1373C11.0411 78.4089 10.6313 77.4212 10.63 76.391V44.075C9.94784 43.8835 9.34685 43.4746 8.91836 42.9104C8.48986 42.3462 8.25729 41.6575 8.25598 40.949V34.984C8.25678 34.1201 8.60028 33.2919 9.2111 32.6811C9.82193 32.0703 10.6501 31.7268 11.514 31.726H20.006C18.8306 30.8029 17.988 29.5219 17.606 28.077C17.0204 25.8659 17.3338 23.5128 18.4778 21.5321C19.6217 19.5513 21.5031 18.1039 23.711 17.506C24.3041 17.3433 24.916 17.2593 25.531 17.256ZM34.086 28.08C33.286 26.715 32.564 25.605 31.837 24.605C29.579 21.514 27.506 20.006 25.497 20.006C25.1352 20.0071 24.7752 20.0555 24.426 20.15C22.9215 20.5584 21.6398 21.5456 20.8609 22.896C20.082 24.2464 19.8692 25.8502 20.269 27.357C20.901 29.722 23.421 31.099 27.969 31.565C28.718 31.641 29.454 31.69 30.218 31.715H32.734C27.354 28.525 24.57 28.155 23.571 28.156C23.4229 28.1515 23.2747 28.1629 23.129 28.19L23.091 28.199C22.9925 28.2184 22.8911 28.2179 22.7928 28.1974C22.6945 28.1769 22.6013 28.1369 22.5188 28.0797C22.4363 28.0225 22.3661 27.9494 22.3123 27.8646C22.2586 27.7798 22.2224 27.685 22.206 27.586L21.816 26.547C21.7466 26.3618 21.7532 26.1567 21.8343 25.9764C21.9154 25.796 22.0644 25.655 22.249 25.584C22.6883 25.436 23.1507 25.3683 23.614 25.384C25.4 25.384 28.626 26.084 34.019 29.268V28.808C34.0204 28.5638 34.0428 28.3203 34.086 28.08ZM46.806 31.74C47.599 31.708 48.331 31.657 49.045 31.583C53.597 31.117 56.117 29.74 56.745 27.374C57.1448 25.8673 56.9321 24.2637 56.1534 22.9133C55.3747 21.5629 54.0933 20.5756 52.589 20.167C52.2373 20.071 51.8745 20.0219 51.51 20.021C49.51 20.021 47.438 21.521 45.176 24.621C44.367 25.7386 43.6192 26.8993 42.936 28.098C42.9787 28.3407 43.0004 28.5866 43.001 28.833V29.293C48.399 26.106 51.628 25.411 53.418 25.411C53.8761 25.396 54.3335 25.46 54.77 25.6C54.863 25.634 54.9484 25.686 55.0212 25.7532C55.0941 25.8203 55.1529 25.9012 55.1942 25.9912C55.2356 26.0812 55.2587 26.1785 55.2623 26.2775C55.2659 26.3765 55.2498 26.4752 55.215 26.568L54.825 27.606C54.809 27.7057 54.7731 27.8012 54.7194 27.8866C54.6657 27.9721 54.5953 28.0459 54.5123 28.1035C54.4294 28.1611 54.3357 28.2014 54.2368 28.2219C54.138 28.2425 54.036 28.2428 53.937 28.223L53.899 28.214C53.7529 28.1869 53.6044 28.1755 53.456 28.18C52.456 28.18 49.669 28.55 44.293 31.739L46.806 31.74ZM40.24 31.727V28.832C40.24 28.3729 40.0576 27.9326 39.733 27.608C39.4084 27.2834 38.9681 27.101 38.509 27.101C38.0499 27.101 37.6096 27.2834 37.285 27.608C36.9604 27.9326 36.778 28.3729 36.778 28.832V31.726L40.24 31.727ZM35.278 31.537V31.157C35.1898 31.2379 35.0835 31.2965 34.968 31.328L35.181 31.463C35.2156 31.4849 35.2484 31.5097 35.279 31.537H35.278ZM42.061 31.349C41.9408 31.3168 41.8305 31.2553 41.74 31.17V31.57C41.7739 31.538 41.8107 31.5092 41.85 31.484L42.061 31.349ZM27.084 32.977C25.8832 32.8359 24.6996 32.5746 23.551 32.197C23.6032 32.3268 23.618 32.4687 23.5938 32.6065C23.5696 32.7444 23.5073 32.8727 23.414 32.977H27.084ZM53.605 32.977C53.5134 32.8748 53.4517 32.7494 53.4265 32.6145C53.4013 32.4796 53.4136 32.3404 53.462 32.212C52.3481 32.5786 51.2009 32.8348 50.037 32.977H53.605ZM31.567 34.477H11.52C11.3856 34.4772 11.2568 34.5307 11.1618 34.6258C11.0667 34.7208 11.0132 34.8496 11.013 34.984V40.949C11.0129 41.0795 11.064 41.2049 11.1552 41.2984C11.2463 41.3918 11.3705 41.4458 11.501 41.449H31.567V34.477ZM42.701 34.477H34.318V77.52H42.706L42.701 34.477ZM65.501 41.456C65.635 41.4552 65.7633 41.4015 65.8579 41.3065C65.9525 41.2115 66.0057 41.083 66.006 40.949V34.984C66.0057 34.8496 65.9522 34.7208 65.8572 34.6258C65.7622 34.5307 65.6334 34.4772 65.499 34.477H45.452V41.456H65.501ZM31.561 44.206H13.38V76.391C13.3813 76.6912 13.5016 76.9787 13.7146 77.1903C13.9275 77.402 14.2157 77.5205 14.516 77.52H31.561V44.206ZM63.639 44.206H45.459V77.52H62.506C62.8072 77.5197 63.096 77.3999 63.309 77.187C63.5219 76.974 63.6417 76.6852 63.642 76.384L63.639 44.206Z" fill="#4C685D"/>
<path d="M33.568 33.7269H43.452V78.2699H33.568V33.7269Z" fill="#76C19F"/>
</g>
</g>
</g>
</g>
<defs>
<clipPath id="clip0_80_97">
<rect width="75" height="96" fill="white" transform="translate(0.5)"/>
</clipPath>
<clipPath id="clip1_80_97">
<rect width="75" height="96" fill="white" transform="translate(1 1)"/>
</clipPath>
</defs>
</svg>
