<svg width="76" height="96" viewBox="0 0 76 96" fill="none" xmlns="http://www.w3.org/2000/svg">
<g clip-path="url(#clip0_80_185)">
<mask id="mask0_80_185" style="mask-type:luminance" maskUnits="userSpaceOnUse" x="0" y="0" width="76" height="96">
<path d="M75.5 0H0.5V96H75.5V0Z" fill="white"/>
</mask>
<g mask="url(#mask0_80_185)">
<mask id="mask1_80_185" style="mask-type:luminance" maskUnits="userSpaceOnUse" x="16" y="13" width="45" height="70">
<path d="M60.194 13H16.5V82.966H60.194V13Z" fill="white"/>
</mask>
<g mask="url(#mask1_80_185)">
<path d="M46.824 44.08C48.4838 44.0251 50.0573 43.3271 51.2121 42.1335C52.3668 40.9399 53.0124 39.3442 53.0124 37.6835C53.0124 36.0227 52.3668 34.427 51.2121 33.2335C50.0573 32.0399 48.4838 31.3419 46.824 31.287C46.7422 31.2725 46.6651 31.2387 46.599 31.1885C46.5329 31.1382 46.4798 31.0729 46.444 30.998C46.3966 30.9287 46.3663 30.8492 46.3555 30.7659C46.3447 30.6827 46.3538 30.5981 46.382 30.519C47.1688 29.0539 47.3544 27.3401 46.8996 25.7405C46.4447 24.141 45.3851 22.7812 43.9451 21.9494C42.5052 21.1175 40.798 20.8787 39.1851 21.2837C37.5721 21.6887 36.1802 22.7056 35.304 24.119C35.2603 24.1954 35.1967 24.2583 35.1198 24.3012C35.043 24.344 34.9559 24.365 34.868 24.362C34.7778 24.3634 34.6888 24.3415 34.6097 24.2984C34.5305 24.2553 34.4637 24.1925 34.416 24.116C33.5398 22.7026 32.1479 21.6857 30.5349 21.2807C28.922 20.8757 27.2148 21.1145 25.7749 21.9464C24.3349 22.7782 23.2753 24.138 22.8204 25.7375C22.3656 27.3371 22.5512 29.0509 23.338 30.516C23.3777 30.5933 23.3965 30.6796 23.3926 30.7664C23.3888 30.8532 23.3624 30.9375 23.316 31.011C23.2748 31.0871 23.2151 31.1517 23.1424 31.1987C23.0697 31.2457 22.9863 31.2736 22.9 31.28C21.2026 31.28 19.5747 31.9543 18.3745 33.1545C17.1743 34.3547 16.5 35.9826 16.5 37.68C16.5 39.3774 17.1743 41.0052 18.3745 42.2055C19.5747 43.4057 21.2026 44.08 22.9 44.08C22.9823 44.0952 23.0598 44.1295 23.1264 44.1803C23.1929 44.231 23.2466 44.2967 23.283 44.372C23.3301 44.4403 23.3601 44.5189 23.3704 44.6013C23.3807 44.6836 23.3709 44.7672 23.342 44.845C22.7066 45.9401 22.4108 47.1992 22.4922 48.4627C22.5735 49.7262 23.0284 50.937 23.799 51.9415C24.5697 52.946 25.6214 53.699 26.8206 54.1048C28.0199 54.5107 29.3127 54.5511 30.535 54.221C31.7732 53.8915 32.8824 53.1941 33.716 52.221V58.661C33.011 57.4998 32.0099 56.547 30.8153 55.9001C29.6208 55.2533 28.2757 54.9357 26.918 54.98L22.271 55.394C22.0879 55.4101 21.9115 55.4701 21.7565 55.5688C21.6015 55.6676 21.4726 55.8022 21.3807 55.9613C21.2888 56.1204 21.2366 56.2994 21.2284 56.4829C21.2203 56.6665 21.2565 56.8494 21.334 57.016L23.189 61.01C23.8059 62.2563 24.7471 63.3133 25.9138 64.07C27.0805 64.8267 28.4295 65.255 29.819 65.31C29.984 65.31 30.146 65.304 30.307 65.288L33.707 64.988V66.08H22.881C22.7042 66.0804 22.5299 66.1218 22.3718 66.2008C22.2136 66.2798 22.0759 66.3944 21.9694 66.5355C21.8629 66.6766 21.7904 66.8404 21.7577 67.0141C21.7251 67.1879 21.733 67.3668 21.781 67.537L25.881 82.137C25.9484 82.3769 26.0923 82.5882 26.2909 82.7388C26.4895 82.8894 26.7318 82.9709 26.981 82.971H42.727C42.9761 82.9706 43.2183 82.8889 43.4168 82.7384C43.6153 82.5879 43.7593 82.3767 43.827 82.137L47.927 67.537C47.975 67.3668 47.9829 67.1879 47.9503 67.0141C47.9176 66.8404 47.8451 66.6766 47.7386 66.5355C47.6321 66.3944 47.4944 66.2798 47.3362 66.2008C47.1781 66.1218 47.0038 66.0804 46.827 66.08H36V52.217C37.0405 53.4212 38.4926 54.1941 40.0725 54.3848C41.6525 54.5755 43.2468 54.1702 44.5439 53.2482C45.841 52.3262 46.7478 50.9536 47.0869 49.3988C47.4261 47.8439 47.1733 46.2184 46.378 44.84C46.3326 44.777 46.3068 44.702 46.3039 44.6244C46.3011 44.5468 46.3213 44.4701 46.362 44.404C46.4099 44.3188 46.4757 44.245 46.5547 44.1875C46.6337 44.1301 46.7242 44.0903 46.82 44.071L46.824 44.08ZM30.108 63.027C29.1043 63.0319 28.1192 62.7564 27.2635 62.2317C26.4079 61.707 25.7157 60.9538 25.265 60.057L24.1 57.542L27.122 57.274C28.1255 57.2681 29.1107 57.5431 29.966 58.068C30.8214 58.5928 31.5128 59.3466 31.962 60.244L33.129 62.759L30.108 63.027ZM41.862 80.68H27.852L24.393 68.38H45.32L41.862 80.68ZM44.383 43.263C44.1401 43.6769 44.0134 44.1487 44.0163 44.6287C44.0191 45.1086 44.1513 45.5789 44.399 45.99C44.6685 46.457 44.8434 46.9726 44.9137 47.5072C44.984 48.0419 44.9483 48.5851 44.8087 49.106C44.669 49.6268 44.4281 50.1151 44.0998 50.5428C43.7714 50.9706 43.362 51.3294 42.895 51.599C41.9518 52.1433 40.8309 52.2907 39.779 52.0086C38.7271 51.7266 37.8304 51.0382 37.286 50.095C37.0787 49.6144 36.7418 49.2009 36.3131 48.9007C35.8843 48.6005 35.3805 48.4254 34.858 48.395C34.3355 48.4254 33.8317 48.6005 33.4029 48.9007C32.9742 49.2009 32.6373 49.6144 32.43 50.095C31.8856 51.0382 30.9889 51.7266 29.937 52.0086C28.8851 52.2907 27.7642 52.1433 26.821 51.599C25.8778 51.0546 25.1894 50.1579 24.9073 49.106C24.6253 48.0541 24.7726 46.9332 25.317 45.99C25.5397 45.5611 25.6508 45.083 25.64 44.5999C25.6292 44.1167 25.4969 43.6441 25.2552 43.2256C25.0136 42.807 24.6704 42.4561 24.2574 42.2052C23.8444 41.9543 23.3748 41.8115 22.892 41.79C21.8032 41.79 20.7589 41.3574 19.989 40.5875C19.219 39.8176 18.7865 38.7733 18.7865 37.6845C18.7865 36.5956 19.219 35.5514 19.989 34.7815C20.7589 34.0115 21.8032 33.579 22.892 33.579C23.3811 33.5727 23.8601 33.4384 24.2812 33.1894C24.7023 32.9405 25.0508 32.5855 25.292 32.16C25.5422 31.7405 25.6765 31.262 25.6811 30.7735C25.6856 30.285 25.5603 29.8041 25.318 29.38C24.773 28.4369 24.6249 27.3159 24.9064 26.2636C25.1879 25.2113 25.8759 24.314 26.819 23.769C27.7621 23.224 28.8831 23.0759 29.9354 23.3574C30.9876 23.6389 31.885 24.3269 32.43 25.27C32.6791 25.6938 33.0349 26.0449 33.462 26.2885C33.889 26.532 34.3724 26.6594 34.864 26.658C35.3538 26.6615 35.8358 26.5348 36.2607 26.2909C36.6855 26.0471 37.038 25.6947 37.282 25.27C37.827 24.3261 38.7247 23.6373 39.7775 23.3553C40.8303 23.0732 41.9521 23.221 42.896 23.766C43.8399 24.311 44.5286 25.2087 44.8107 26.2615C45.0928 27.3143 44.945 28.4361 44.4 29.38C44.1783 29.8086 44.0678 30.2861 44.0787 30.7685C44.0897 31.251 44.2216 31.723 44.4626 32.1411C44.7035 32.5593 45.0456 32.9102 45.4576 33.1616C45.8695 33.413 46.338 33.5569 46.82 33.58C47.9088 33.58 48.9531 34.0125 49.723 34.7825C50.493 35.5524 50.9255 36.5966 50.9255 37.6855C50.9255 38.7743 50.493 39.8186 49.723 40.5885C48.9531 41.3584 47.9088 41.791 46.82 41.791C46.3209 41.8104 45.8348 41.9563 45.4075 42.215C44.9802 42.4737 44.6256 42.8367 44.377 43.27L44.383 43.263ZM34.858 31.653C33.6651 31.653 32.4991 32.0067 31.5073 32.6695C30.5154 33.3322 29.7424 34.2742 29.286 35.3763C28.8295 36.4783 28.7102 37.691 28.943 38.8609C29.1757 40.0309 29.7502 41.1055 30.5938 41.9489C31.4373 42.7923 32.5121 43.3666 33.682 43.5992C34.852 43.8318 36.0647 43.7122 37.1667 43.2556C38.2687 42.799 39.2105 42.0258 39.8731 41.0339C40.5357 40.042 40.8892 38.8758 40.889 37.683C40.8874 36.084 40.2515 34.5511 39.1207 33.4205C37.99 32.29 36.4569 31.6543 34.858 31.653ZM34.858 41.212C34.1604 41.212 33.4785 41.0052 32.8984 40.6177C32.3183 40.2302 31.8661 39.6794 31.5989 39.035C31.3318 38.3906 31.2617 37.6814 31.3975 36.9972C31.5333 36.3129 31.8689 35.6843 32.3619 35.1907C32.8549 34.6972 33.4832 34.3608 34.1673 34.2243C34.8514 34.0877 35.5606 34.157 36.2053 34.4234C36.8501 34.6898 37.4013 35.1414 37.7895 35.721C38.1776 36.3007 38.3852 36.9824 38.386 37.68C38.3852 38.6154 38.0133 39.5123 37.3518 40.1738C36.6903 40.8352 35.7934 41.2072 34.858 41.208" fill="#4C685D"/>
<path d="M58.821 25.561C57.4833 26.9658 55.71 27.8771 53.789 28.147C53.513 28.185 52.861 28.347 52.625 28.19C52.389 28.033 52.235 27.333 52.14 27.082C51.9769 26.644 51.8432 26.1957 51.74 25.74C51.5231 24.8359 51.4639 23.9012 51.565 22.977C51.955 19.777 55.775 16.625 58.803 19.012C60.876 20.646 60.433 23.775 58.825 25.561" fill="#76C19F"/>
<path d="M45.72 17.518C46.2099 18.8603 47.1392 19.9975 48.357 20.745C48.532 20.853 48.924 21.157 49.13 21.117C49.336 21.077 49.646 20.654 49.784 20.511C50.0237 20.2635 50.2468 20.0006 50.452 19.724C50.8642 19.1771 51.1795 18.5635 51.384 17.91C52.062 15.633 50.41 12.382 47.662 13.1C45.781 13.593 45.162 15.836 45.719 17.516" fill="#76C19F"/>
</g>
</g>
</g>
<defs>
<clipPath id="clip0_80_185">
<rect width="75" height="96" fill="white" transform="translate(0.5)"/>
</clipPath>
</defs>
</svg>
